<svg width="20" height="20" viewBox="0 0 20 20" fill="none" xmlns="http://www.w3.org/2000/svg">
<g clip-path="url(#clip0_12364_3836)">
<path d="M18.125 11.126V11.061C18.1224 10.0823 17.7315 9.14465 17.0383 8.4538C16.3451 7.76294 15.4062 7.37531 14.4275 7.37598C14.2269 7.3749 14.0311 7.31499 13.8642 7.20367C13.6973 7.09235 13.5668 6.93452 13.4888 6.74973L13.3075 6.31473C12.9752 5.51923 12.4153 4.83964 11.6981 4.36127C10.9809 3.88291 10.1384 3.62711 9.27625 3.62598H9.01875C8.36419 3.62603 7.71687 3.76303 7.11841 4.02816C6.51995 4.2933 5.98358 4.6807 5.54376 5.16549C5.10395 5.65027 4.77042 6.22171 4.56462 6.84308C4.35881 7.46445 4.28528 8.122 4.34875 8.77348L4.3625 8.92473C4.38748 9.17035 4.32296 9.41674 4.18081 9.6186C4.03866 9.82046 3.82842 9.96422 3.58875 10.0235C3.09945 10.1458 2.66504 10.4281 2.35455 10.8256C2.04405 11.223 1.87527 11.7129 1.875 12.2172V12.3922C1.875 13.7635 2.9875 14.876 4.35875 14.876H5.625C5.87364 14.876 6.1121 14.9747 6.28791 15.1506C6.46373 15.3264 6.5625 15.5648 6.5625 15.8135C6.5625 16.0621 6.46373 16.3006 6.28791 16.4764C6.1121 16.6522 5.87364 16.751 5.625 16.751H4.35875C3.20274 16.751 2.09407 16.2918 1.27665 15.4743C0.459224 14.6569 0 13.5482 0 12.3922L0 12.2172C0 10.5622 0.98125 9.09348 2.45375 8.43848C2.43764 7.56614 2.59554 6.69934 2.91822 5.88872C3.24091 5.0781 3.72191 4.33992 4.33312 3.7173C4.94433 3.09469 5.6735 2.60012 6.47801 2.26251C7.28253 1.92489 8.14627 1.75099 9.01875 1.75098H9.27625C10.4968 1.75107 11.6905 2.10926 12.7095 2.78116C13.7284 3.45306 14.5279 4.40915 15.0087 5.53098C16.3768 5.67361 17.6436 6.31748 18.5652 7.33852C19.4867 8.35957 19.9978 9.68554 20 11.061V11.126C20 11.3746 19.9012 11.6131 19.7254 11.7889C19.5496 11.9647 19.3111 12.0635 19.0625 12.0635C18.8139 12.0635 18.5754 11.9647 18.3996 11.7889C18.2238 11.6131 18.125 11.3746 18.125 11.126Z" fill="black"/>
<path d="M10.4751 9.58806L13.2876 12.4006C13.3748 12.4876 13.4439 12.591 13.491 12.7048C13.5382 12.8186 13.5624 12.9405 13.5624 13.0637C13.5624 13.1868 13.5382 13.3088 13.491 13.4226C13.4439 13.5364 13.3748 13.6397 13.2876 13.7268L10.4751 16.5381C10.3881 16.6251 10.2849 16.6941 10.1712 16.7412C10.0575 16.7882 9.93569 16.8125 9.81265 16.8125C9.68961 16.8125 9.56778 16.7882 9.45411 16.7412C9.34043 16.6941 9.23715 16.6251 9.15015 16.5381C9.06315 16.4511 8.99414 16.3478 8.94705 16.2341C8.89997 16.1204 8.87573 15.9986 8.87573 15.8756C8.87573 15.7525 8.89997 15.6307 8.94705 15.517C8.99414 15.4033 9.06315 15.3001 9.15015 15.2131L11.2989 13.0631L9.15015 10.9143C8.97929 10.7376 8.88468 10.5008 8.8867 10.255C8.88872 10.0092 8.98721 9.774 9.16095 9.6001C9.33468 9.42619 9.56978 9.32749 9.81559 9.32523C10.0614 9.32298 10.2983 9.41737 10.4751 9.58806ZM18.7501 16.8131H15.0001C14.7515 16.8131 14.5131 16.7143 14.3372 16.5385C14.1614 16.3627 14.0626 16.1242 14.0626 15.8756C14.0626 15.6269 14.1614 15.3885 14.3372 15.2126C14.5131 15.0368 14.7515 14.9381 15.0001 14.9381H18.7501C18.9988 14.9381 19.2372 15.0368 19.4131 15.2126C19.5889 15.3885 19.6876 15.6269 19.6876 15.8756C19.6876 16.1242 19.5889 16.3627 19.4131 16.5385C19.2372 16.7143 18.9988 16.8131 18.7501 16.8131Z" fill="black"/>
</g>
<defs>
<clipPath id="clip0_12364_3836">
<rect width="20" height="20" fill="white"/>
</clipPath>
</defs>
</svg>
