<svg preserveAspectRatio="none" overflow="visible" style="display: block;" width="16" height="16" viewBox="0 0 16 16" fill="none" xmlns="http://www.w3.org/2000/svg">
<g id="fe:clock">
<path id="Vector" fill-rule="evenodd" clip-rule="evenodd" d="M8 14.6667C4.318 14.6667 1.33333 11.682 1.33333 8C1.33333 4.318 4.318 1.33333 8 1.33333C11.682 1.33333 14.6667 4.318 14.6667 8C14.6667 11.682 11.682 14.6667 8 14.6667ZM13.3333 8C13.3333 6.58551 12.7714 5.22896 11.7712 4.22876C10.771 3.22857 9.41449 2.66667 8 2.66667C6.58551 2.66667 5.22896 3.22857 4.22876 4.22876C3.22857 5.22896 2.66667 6.58551 2.66667 8C2.66667 9.41449 3.22857 10.771 4.22876 11.7712C5.22896 12.7714 6.58551 13.3333 8 13.3333C9.41449 13.3333 10.771 12.7714 11.7712 11.7712C12.7714 10.771 13.3333 9.41449 13.3333 8ZM10.6667 7.33333C10.8435 7.33333 11.013 7.40357 11.1381 7.5286C11.2631 7.65362 11.3333 7.82319 11.3333 8C11.3333 8.17681 11.2631 8.34638 11.1381 8.4714C11.013 8.59643 10.8435 8.66667 10.6667 8.66667H8.66667C7.93333 8.66667 7.33333 8.06667 7.33333 7.33333V4.66667C7.33333 4.48986 7.40357 4.32029 7.5286 4.19526C7.65362 4.07024 7.82319 4 8 4C8.17681 4 8.34638 4.07024 8.4714 4.19526C8.59643 4.32029 8.66667 4.48986 8.66667 4.66667V7.33333H10.6667Z" fill="#868686"/>
</g>
</svg>
