<svg width="24" height="24" viewBox="0 0 24 24" fill="none" xmlns="http://www.w3.org/2000/svg">
  <g transform="translate(0.05, 2.4)">
    <path d="M23.0596 12.9756C23.5218 12.9758 23.8973 13.3624 23.8975 13.8389V15.2236C23.8975 15.7003 23.5219 16.0877 23.0596 16.0879H21.9658C21.7427 16.0879 21.5299 16.1791 21.373 16.3408L21.123 16.5986C20.9664 16.7615 20.878 16.9804 20.8779 17.209V18.3369C20.8777 18.8135 20.5024 19.2002 20.04 19.2002H18.6973C18.2349 19.2002 17.8596 18.8135 17.8594 18.3369V16.9512C17.8596 16.4746 18.2349 16.0879 18.6973 16.0879H20.04C20.2631 16.0879 20.4759 15.9967 20.6328 15.835C20.7897 15.672 20.8779 15.4524 20.8779 15.2236V13.8389C20.8781 13.3623 21.2535 12.9756 21.7158 12.9756H23.0596ZM2.17969 12.9746C2.64212 12.9746 3.01749 13.3612 3.01758 13.8379V15.1582H3.02051C3.02051 15.387 3.10875 15.6066 3.26562 15.7695C3.46197 15.973 3.72909 16.0869 4.00781 16.0869H5.13867C5.60102 16.087 5.97645 16.4736 5.97656 16.9502V18.335C5.97656 18.8117 5.60109 19.1991 5.13867 19.1992H3.79492C3.33256 19.1991 2.95703 18.8117 2.95703 18.335V17.1699C2.95703 16.8824 2.84692 16.6079 2.64941 16.4043C2.45311 16.2007 2.186 16.087 1.90723 16.0869H0.837891C0.375401 16.0869 0 15.6995 0 15.2227V13.8379C8.95772e-05 13.3612 0.375456 12.9758 0.837891 12.9746H2.17969ZM10.1045 16.0869C10.5671 16.0869 10.9422 16.4733 10.9424 16.9502V18.334C10.9424 18.811 10.5672 19.1982 10.1045 19.1982H8.7627C8.3 19.1982 7.9248 18.811 7.9248 18.334V16.9502C7.925 16.4733 8.30012 16.0869 8.7627 16.0869H10.1045ZM15.0723 16.0869C15.5347 16.0871 15.91 16.4734 15.9102 16.9502V18.334C15.9102 18.8109 15.5348 19.1981 15.0723 19.1982H13.7295C13.2669 19.1981 12.8916 18.8109 12.8916 18.334V16.9502C12.8918 16.4734 13.267 16.0871 13.7295 16.0869H15.0723ZM15.9277 0C16.3902 0 16.7656 0.387461 16.7656 0.864258V1.95312C16.7657 2.2154 16.867 2.46693 17.0459 2.65137L17.1729 2.78223C17.3517 2.96646 17.5955 3.07028 17.8486 3.07031H18.8721C19.3346 3.07031 19.71 3.45777 19.71 3.93457V12.4414L19.7129 12.4434C19.7129 12.9201 19.3374 13.3075 18.875 13.3076H6.87695C6.41446 13.3076 6.03906 12.9202 6.03906 12.4434V11.2578C6.03906 11.0278 5.95082 10.8082 5.79395 10.6465L5.79004 10.6426C5.56929 10.4152 5.26925 10.2871 4.95801 10.2871H3.94531C3.48292 10.2871 3.10758 9.90048 3.10742 9.42383V0.864258C3.10742 0.387461 3.48282 0 3.94531 0H15.9277ZM6.89844 3.0459C6.43618 3.04616 6.06154 3.43256 6.06152 3.90918V9.15039C6.06153 9.47262 6.18452 9.7802 6.40527 10.0078C6.56331 10.1695 6.7761 10.2607 6.99805 10.2607H15.9199C16.3823 10.2607 16.7577 9.87408 16.7578 9.39746V4.03223C16.7577 3.77 16.6564 3.51839 16.4775 3.33398H16.4785C16.2984 3.14962 16.054 3.0459 15.8008 3.0459H6.89844ZM9.70117 5.31934C10.1635 5.31959 10.5378 5.70596 10.5381 6.18262V7.39258C10.5381 7.86945 10.1637 8.25658 9.70117 8.25684H8.52734C8.06462 8.25684 7.68945 7.86961 7.68945 7.39258V6.18262C7.6897 5.7058 8.06477 5.31934 8.52734 5.31934H9.70117ZM14.2383 5.31934C14.7009 5.31934 15.0759 5.7058 15.0762 6.18262V7.39258C15.0762 7.86961 14.701 8.25684 14.2383 8.25684H13.0645C12.6019 8.25667 12.2266 7.86951 12.2266 7.39258V6.18262C12.2268 5.7059 12.602 5.3195 13.0645 5.31934H14.2383Z" fill="currentColor"/>
  </g>
</svg>
